<svg
  width="40"
  height="34"
  viewBox="0 0 40 34"
  fill="none"
  xmlns="http://www.w3.org/2000/svg"
>
  <path
    fillRule="evenodd"
    clipRule="evenodd"
    d="M0.657003 15.1C2.82569 6.3833 10.6532 0.264648 19.6356 0.264648C28.618 0.264648 36.4455 6.3833 38.6141 15.1H36.8999C34.008 15.0574 31.1754 15.9216 28.7999 17.5714C28.6628 17.6707 28.5196 17.7613 28.3713 17.8428H28.1713C28.0229 17.7613 27.8798 17.6707 27.7427 17.5714C22.8406 14.275 16.4306 14.275 11.5284 17.5714C11.3913 17.6707 11.2482 17.7613 11.0999 17.8428H10.8999C10.7515 17.7613 10.6084 17.6707 10.4713 17.5714C8.09576 15.9216 5.26317 15.0574 2.37129 15.1H0.657003ZM33.8141 24.0571C34.6942 23.3718 35.7848 23.0132 36.8999 23.0428H39.1999V18.4571H36.8999C34.9359 18.4333 33.0168 19.0446 31.4284 20.2C29.5937 21.5526 27.0918 21.5526 25.257 20.2C21.9213 17.8779 17.4927 17.8779 14.157 20.2C12.3222 21.5526 9.82036 21.5526 7.98557 20.2C6.37757 19.0299 4.431 18.4178 2.44272 18.4571H0.0712891V23.0428H2.37129C3.4863 23.0132 4.57699 23.3718 5.457 24.0571C8.78692 26.3808 13.2128 26.3808 16.5427 24.0571C17.4239 23.3739 18.5138 23.0156 19.6284 23.0428C20.7438 23.0108 21.8353 23.3696 22.7141 24.0571C26.0498 26.3791 30.4785 26.3791 33.8141 24.0571ZM36.8999 31.2428C35.7848 31.2132 34.6942 31.5718 33.8141 32.2571C30.4785 34.5791 26.0498 34.5791 22.7141 32.2571C21.8353 31.5696 20.7438 31.2108 19.6284 31.2428C18.5138 31.2156 17.4239 31.5739 16.5427 32.2571C13.2128 34.5808 8.78692 34.5808 5.457 32.2571C4.57699 31.5718 3.4863 31.2132 2.37129 31.2428H0.0712891V26.6571H2.44272C4.431 26.6178 6.37757 27.2299 7.98557 28.4C9.82036 29.7526 12.3222 29.7526 14.157 28.4C17.4927 26.0779 21.9213 26.0779 25.257 28.4C27.0918 29.7526 29.5937 29.7526 31.4284 28.4C33.0168 27.2446 34.9359 26.6333 36.8999 26.6571H39.1999V31.2428H36.8999Z"
    fill="black"
  />
</svg>